<svg width="24" height="24" viewBox="0 0 24 24" fill="none" xmlns="http://www.w3.org/2000/svg">
<path d="M10 20H7M18 17H16M13.0002 9H6.2002C5.08009 9 4.51962 9 4.0918 9.21799C3.71547 9.40973 3.40973 9.71572 3.21799 10.092C3 10.5199 3 11.0799 3 12.2V13.8C3 14.9201 3 15.4801 3.21799 15.908C3.40973 16.2843 3.71547 16.5902 4.0918 16.782C4.51962 17 5.08009 17 6.2002 17H13.0002M17.002 7V7.002L17 7.00201V7H17.002ZM21 7.20001V16.8C21 17.9201 21.0002 18.4801 20.7822 18.908C20.5905 19.2843 20.2841 19.5902 19.9078 19.782C19.48 20 18.9203 20 17.8002 20H16.2002C15.0801 20 14.5196 20 14.0918 19.782C13.7155 19.5902 13.4097 19.2843 13.218 18.908C13 18.4801 13 17.9201 13 16.8V7.20001C13 6.07991 13 5.51986 13.218 5.09204C13.4097 4.71572 13.7155 4.40973 14.0918 4.21799C14.5196 4 15.0801 4 16.2002 4H17.8002C18.9203 4 19.48 4 19.9078 4.21799C20.2841 4.40973 20.5905 4.71572 20.7822 5.09204C21.0002 5.51986 21 6.07991 21 7.20001Z" stroke="#00AEFF" stroke-width="2" stroke-linecap="round" stroke-linejoin="round"/>
</svg>
