<svg width="24" height="24" viewBox="0 0 24 24" fill="none" xmlns="http://www.w3.org/2000/svg">
<path d="M23.4025 13L21.5104 7.2C20.7137 5.3 18.9212 4 16.8299 4H6.97095C4.87967 4 3.08714 5.3 2.29046 7.2L0.39834 13C0.0995851 13.6 0 14.3 0 15C0 17.8 2.19087 20 4.97925 20C6.97095 20 8.76349 18.8 9.56017 17H14.4398C15.2365 18.8 16.9295 20 19.0207 20C21.8091 20 24 17.8 24 15C23.8008 14.3 23.7012 13.6 23.4025 13ZM18.8216 18C17.6266 18 16.6307 17.3 16.1328 16.2L15.5353 15H8.26556L7.76763 16.2C7.17012 17.3 6.17427 18 4.97925 18C3.28631 18 1.9917 16.7 1.9917 15C1.9917 14.6 2.09129 14.2 2.19087 13.8L4.18257 7.8C4.6805 6.7 5.77593 6 6.97095 6H16.9295C18.1245 6 19.2199 6.7 19.7178 7.9L21.7095 13.9C21.9087 14.3 21.9087 14.7 21.9087 15.1C21.8091 16.7 20.5145 18 18.8216 18Z" fill="#00AEFF"/>
<path d="M14.9 13.6C15.6179 13.6 16.2 13.018 16.2 12.3C16.2 11.582 15.6179 11 14.9 11C14.182 11 13.6 11.582 13.6 12.3C13.6 13.018 14.182 13.6 14.9 13.6Z" fill="#00AEFF"/>
<path d="M17.3 10.6C18.018 10.6 18.6 10.018 18.6 9.3C18.6 8.58203 18.018 8 17.3 8C16.582 8 16 8.58203 16 9.3C16 10.018 16.582 10.6 17.3 10.6Z" fill="#00AEFF"/>
<path d="M8 8C8.55228 8 9 8.44771 9 9V10H10C10.5523 10 11 10.4477 11 11C11 11.5523 10.5523 12 10 12H9V13C9 13.5523 8.55228 14 8 14C7.44772 14 7 13.5523 7 13V12H6C5.44772 12 5 11.5523 5 11C5 10.4477 5.44772 10 6 10H7V9C7 8.44771 7.44772 8 8 8Z" fill="#00AEFF"/>
</svg>
