<svg width="27" height="34" viewBox="0 0 27 34" fill="none" xmlns="http://www.w3.org/2000/svg">
<path d="M26 9V25C26 31.4 24.4375 33 18.1875 33H8.8125C2.5625 33 1 31.4 1 25V9C1 2.6 2.5625 1 8.8125 1H18.1875C24.4375 1 26 2.6 26 9Z" stroke="#888888" stroke-width="2" stroke-linecap="round" stroke-linejoin="round"/>
<path d="M16.625 6.6001H10.375" stroke="#888888" stroke-width="2" stroke-linecap="round" stroke-linejoin="round"/>
<path d="M13.5 28.3599C14.8376 28.3599 15.9219 27.2496 15.9219 25.8799C15.9219 24.5102 14.8376 23.3999 13.5 23.3999C12.1624 23.3999 11.0781 24.5102 11.0781 25.8799C11.0781 27.2496 12.1624 28.3599 13.5 28.3599Z" stroke="#888888" stroke-width="2" stroke-linecap="round" stroke-linejoin="round"/>
</svg>
