<svg width="32" height="32" viewBox="0 0 32 32" fill="none" xmlns="http://www.w3.org/2000/svg">
<path d="M5.33341 6.66667V22.6667H21.3334C25.1041 22.6667 26.9907 22.6667 28.1614 21.4947C29.3334 20.324 29.3334 18.4373 29.3334 14.6667C29.3334 10.896 29.3334 9.00933 28.1614 7.83867C26.9907 6.66667 25.1041 6.66667 21.3334 6.66667H5.33341ZM5.33341 6.66667V28M5.33341 6.66667C5.33341 5.95942 5.05246 5.28115 4.55237 4.78105C4.05227 4.28095 3.37399 4 2.66675 4M10.6667 22.6667V24.6667C10.6667 25.288 10.6667 25.5987 10.7681 25.844C10.9037 26.1701 11.1631 26.429 11.4894 26.564C11.7347 26.6667 12.0454 26.6667 12.6667 26.6667C13.2881 26.6667 13.5987 26.6667 13.8441 26.5653C14.1701 26.4297 14.4291 26.1703 14.5641 25.844C14.6667 25.5987 14.6667 25.288 14.6667 24.6667V22.6667M18.6667 22.6667V24C18.6667 25.2573 18.6667 25.8853 19.0574 26.276C19.4481 26.6667 20.0761 26.6667 21.3334 26.6667H22.6667C23.9241 26.6667 24.5521 26.6667 24.9427 26.276C25.3334 25.8853 25.3334 25.2573 25.3334 24V22.6667M10.6667 12V17.3333" stroke="#888888" stroke-width="2" stroke-linecap="round" stroke-linejoin="round"/>
<path d="M20 18.6665C20.5253 18.6665 21.0454 18.563 21.5307 18.362C22.016 18.161 22.457 17.8664 22.8284 17.4949C23.1999 17.1235 23.4945 16.6825 23.6955 16.1972C23.8965 15.7119 24 15.1918 24 14.6665C24 14.1412 23.8965 13.6211 23.6955 13.1358C23.4945 12.6505 23.1999 12.2095 22.8284 11.8381C22.457 11.4666 22.016 11.172 21.5307 10.971C21.0454 10.77 20.5253 10.6665 20 10.6665C18.9391 10.6665 17.9217 11.0879 17.1716 11.8381C16.4214 12.5882 16 13.6056 16 14.6665C16 15.7274 16.4214 16.7448 17.1716 17.4949C17.9217 18.2451 18.9391 18.6665 20 18.6665Z" stroke="#888888" stroke-width="2" stroke-linecap="round" stroke-linejoin="round"/>
</svg>
