<svg width="32" height="32" viewBox="0 0 32 32" fill="none" xmlns="http://www.w3.org/2000/svg">
<path d="M12.7999 26.6668H19.1999C24.5333 26.6668 26.6666 24.5335 26.6666 19.2002V12.8002C26.6666 7.46683 24.5333 5.3335 19.1999 5.3335H12.7999C7.46659 5.3335 5.33325 7.46683 5.33325 12.8002V19.2002C5.33325 24.5335 7.46659 26.6668 12.7999 26.6668Z" stroke="#888888" stroke-width="2" stroke-linecap="round" stroke-linejoin="round"/>
<path d="M13.9999 22.6668H17.9999C21.3333 22.6668 22.6666 21.3335 22.6666 18.0002V14.0002C22.6666 10.6668 21.3333 9.3335 17.9999 9.3335H13.9999C10.6666 9.3335 9.33325 10.6668 9.33325 14.0002V18.0002C9.33325 21.3335 10.6666 22.6668 13.9999 22.6668Z" stroke="#888888" stroke-width="2" stroke-linecap="round" stroke-linejoin="round"/>
<path d="M10.6799 5.33317V2.6665" stroke="#888888" stroke-width="2" stroke-linecap="round" stroke-linejoin="round"/>
<path d="M16 5.33317V2.6665" stroke="#888888" stroke-width="2" stroke-linecap="round" stroke-linejoin="round"/>
<path d="M21.3333 5.33317V2.6665" stroke="#888888" stroke-width="2" stroke-linecap="round" stroke-linejoin="round"/>
<path d="M26.6667 10.6665H29.3334" stroke="#888888" stroke-width="2" stroke-linecap="round" stroke-linejoin="round"/>
<path d="M26.6667 16H29.3334" stroke="#888888" stroke-width="2" stroke-linecap="round" stroke-linejoin="round"/>
<path d="M26.6667 21.3335H29.3334" stroke="#888888" stroke-width="2" stroke-linecap="round" stroke-linejoin="round"/>
<path d="M21.3333 26.6665V29.3332" stroke="#888888" stroke-width="2" stroke-linecap="round" stroke-linejoin="round"/>
<path d="M16.0134 26.6665V29.3332" stroke="#888888" stroke-width="2" stroke-linecap="round" stroke-linejoin="round"/>
<path d="M10.6799 26.6665V29.3332" stroke="#888888" stroke-width="2" stroke-linecap="round" stroke-linejoin="round"/>
<path d="M2.66675 10.6665H5.33341" stroke="#888888" stroke-width="2" stroke-linecap="round" stroke-linejoin="round"/>
<path d="M2.66675 16H5.33341" stroke="#888888" stroke-width="2" stroke-linecap="round" stroke-linejoin="round"/>
<path d="M2.66675 21.3335H5.33341" stroke="#888888" stroke-width="2" stroke-linecap="round" stroke-linejoin="round"/>
</svg>
