<svg width="32" height="32" viewBox="0 0 32 32" fill="none" xmlns="http://www.w3.org/2000/svg">
<path d="M25.7599 13.3335H6.25328C4.27994 13.3335 2.67993 11.7202 2.67993 9.76019V6.25352C2.67993 4.28019 4.29328 2.68018 6.25328 2.68018H25.7599C27.7333 2.68018 29.3333 4.29352 29.3333 6.25352V9.76019C29.3333 11.7202 27.7199 13.3335 25.7599 13.3335Z" stroke="#888888" stroke-width="2" stroke-linecap="round" stroke-linejoin="round"/>
<path d="M25.7599 29.3335H6.25328C4.27994 29.3335 2.67993 27.7202 2.67993 25.7602V22.2535C2.67993 20.2802 4.29328 18.6802 6.25328 18.6802H25.7599C27.7333 18.6802 29.3333 20.2935 29.3333 22.2535V25.7602C29.3333 27.7202 27.7199 29.3335 25.7599 29.3335Z" stroke="#888888" stroke-width="2" stroke-linecap="round" stroke-linejoin="round"/>
<path d="M8 6.6665V9.33317" stroke="#888888" stroke-width="2" stroke-linecap="round" stroke-linejoin="round"/>
<path d="M13.3333 6.6665V9.33317" stroke="#888888" stroke-width="2" stroke-linecap="round" stroke-linejoin="round"/>
<path d="M8 22.6665V25.3332" stroke="#888888" stroke-width="2" stroke-linecap="round" stroke-linejoin="round"/>
<path d="M13.3333 22.6665V25.3332" stroke="#888888" stroke-width="2" stroke-linecap="round" stroke-linejoin="round"/>
<path d="M18.6667 8H24.0001" stroke="#888888" stroke-width="2" stroke-linecap="round" stroke-linejoin="round"/>
<path d="M18.6667 24H24.0001" stroke="#888888" stroke-width="2" stroke-linecap="round" stroke-linejoin="round"/>
</svg>
