<svg width="32" height="32" viewBox="0 0 32 32" fill="none" xmlns="http://www.w3.org/2000/svg">
<path d="M10.3999 18.3998V12.7998" stroke="#888888" stroke-width="2" stroke-linecap="round" stroke-linejoin="round"/>
<path d="M10.6 23.9998C12.036 23.9998 13.2 22.8357 13.2 21.3998C13.2 19.9638 12.036 18.7998 10.6 18.7998C9.16408 18.7998 8 19.9638 8 21.3998C8 22.8357 9.16408 23.9998 10.6 23.9998Z" stroke="#888888" stroke-width="2" stroke-linecap="round" stroke-linejoin="round"/>
<path d="M10.4 12.8C11.7255 12.8 12.8 11.7255 12.8 10.4C12.8 9.0745 11.7255 8 10.4 8C9.0745 8 8 9.0745 8 10.4C8 11.7255 9.0745 12.8 10.4 12.8Z" stroke="#888888" stroke-width="2" stroke-linecap="round" stroke-linejoin="round"/>
<path d="M21.5999 12.8C22.9254 12.8 23.9999 11.7255 23.9999 10.4C23.9999 9.0745 22.9254 8 21.5999 8C20.2745 8 19.2 9.0745 19.2 10.4C19.2 11.7255 20.2745 12.8 21.5999 12.8Z" stroke="#888888" stroke-width="2" stroke-linecap="round" stroke-linejoin="round"/>
<path d="M10.5066 18.4001C10.8666 17.0001 12.1466 15.9601 13.6532 15.9735L16.3999 15.9868C18.4932 16.0001 20.2799 14.6534 20.9333 12.7734" stroke="#888888" stroke-width="2" stroke-linecap="round" stroke-linejoin="round"/>
<path d="M12.0001 2.6665H20.0001C26.6667 2.6665 29.3334 5.33317 29.3334 11.9998V19.9998C29.3334 26.6665 26.6667 29.3332 20.0001 29.3332H12.0001C5.33341 29.3332 2.66675 26.6665 2.66675 19.9998V11.9998C2.66675 5.33317 5.33341 2.6665 12.0001 2.6665Z" stroke="#888888" stroke-width="2" stroke-linecap="round" stroke-linejoin="round"/>
</svg>
