<svg width="32" height="32" viewBox="0 0 32 32" fill="none" xmlns="http://www.w3.org/2000/svg">
<path d="M2.66675 20H24.6667C27.2401 20 29.3334 22.0933 29.3334 24.6667C29.3334 27.24 27.2401 29.3333 24.6667 29.3333C22.0934 29.3333 20.0001 27.24 20.0001 24.6667V24" stroke="#888888" stroke-width="2" stroke-miterlimit="10" stroke-linecap="round" stroke-linejoin="round"/>
<path d="M2.66675 15.9998H24.6667C27.2267 15.9998 29.3334 13.9065 29.3334 11.3332C29.3334 8.77317 27.2267 6.6665 24.6667 6.6665C22.1067 6.6665 20.0001 8.75984 20.0001 11.3332V11.9998" stroke="#888888" stroke-width="2" stroke-miterlimit="10" stroke-linecap="round" stroke-linejoin="round"/>
<path d="M2.66675 12H12.4134C14.4001 12 16.0001 10.3867 16.0001 8.41333C16.0001 6.42666 14.3867 4.82666 12.4134 4.82666C10.4267 4.82666 8.82674 6.43999 8.82674 8.41333V8.91999" stroke="#888888" stroke-width="2" stroke-miterlimit="10" stroke-linecap="round" stroke-linejoin="round"/>
</svg>
