<svg width="32" height="32" viewBox="0 0 32 32" fill="none" xmlns="http://www.w3.org/2000/svg">
<path d="M4.6665 9.33317V22.6665C4.6665 26.6665 6.6265 29.3332 11.3332 29.3332H20.6665C25.2932 29.3332 27.3332 26.6665 27.3332 22.6665V21.1065C27.3332 20.3998 27.0532 19.7198 26.5465 19.2265L25.4398 18.1198C24.9332 17.6132 24.6532 16.9465 24.6532 16.2398V13.3332C24.6532 12.5998 25.2532 11.9998 25.9865 11.9998C26.7198 11.9998 27.3198 11.3998 27.3198 10.6665V9.33317C27.3198 5.33317 25.2798 2.6665 20.6532 2.6665H11.3198C6.6265 2.6665 4.6665 5.33317 4.6665 9.33317Z" stroke="#888888" stroke-width="2" stroke-linecap="round" stroke-linejoin="round"/>
<path d="M10.6535 29.2932L10.6401 25.3332C10.6401 23.8532 11.8268 22.6665 13.3068 22.6665H18.6535C20.1201 22.6665 21.3068 23.8532 21.3201 25.3198L21.3601 29.3065" stroke="#888888" stroke-width="2" stroke-linecap="round" stroke-linejoin="round"/>
<path d="M11.9199 6.59992L11.9866 2.74658" stroke="#888888" stroke-width="2" stroke-linecap="round" stroke-linejoin="round"/>
<path d="M15.9199 6.59992L15.9866 2.74658" stroke="#888888" stroke-width="2" stroke-linecap="round" stroke-linejoin="round"/>
<path d="M19.9199 6.56022L19.9866 2.72021" stroke="#888888" stroke-width="2" stroke-linecap="round" stroke-linejoin="round"/>
</svg>
