<svg width="24" height="24" viewBox="0 0 24 24" fill="none" xmlns="http://www.w3.org/2000/svg">
<path d="M4 5V17H16C18.828 17 20.243 17 21.121 16.121C22 15.243 22 13.828 22 11C22 8.172 22 6.757 21.121 5.879C20.243 5 18.828 5 16 5H4ZM4 5V21M4 5C4 4.46957 3.78929 3.96086 3.41421 3.58579C3.03914 3.21071 2.53043 3 2 3M8 17V18.5C8 18.966 8 19.199 8.076 19.383C8.17771 19.6275 8.37227 19.8217 8.617 19.923C8.801 20 9.034 20 9.5 20C9.966 20 10.199 20 10.383 19.924C10.6275 19.8223 10.8217 19.6277 10.923 19.383C11 19.199 11 18.966 11 18.5V17M14 17V18C14 18.943 14 19.414 14.293 19.707C14.586 20 15.057 20 16 20H17C17.943 20 18.414 20 18.707 19.707C19 19.414 19 18.943 19 18V17M8 9V13" stroke="#888888" stroke-width="1.5" stroke-linecap="round" stroke-linejoin="round"/>
<path d="M15 14C15.394 14 15.7841 13.9224 16.1481 13.7716C16.512 13.6209 16.8427 13.3999 17.1213 13.1213C17.3999 12.8427 17.6209 12.512 17.7716 12.1481C17.9224 11.7841 18 11.394 18 11C18 10.606 17.9224 10.2159 17.7716 9.85195C17.6209 9.48797 17.3999 9.15726 17.1213 8.87868C16.8427 8.6001 16.512 8.37913 16.1481 8.22836C15.7841 8.0776 15.394 8 15 8C14.2044 8 13.4413 8.31607 12.8787 8.87868C12.3161 9.44129 12 10.2044 12 11C12 11.7956 12.3161 12.5587 12.8787 13.1213C13.4413 13.6839 14.2044 14 15 14Z" stroke="#888888" stroke-width="1.5" stroke-linecap="round" stroke-linejoin="round"/>
</svg>
