<svg width="202" height="32" viewBox="0 0 202 32" fill="none" xmlns="http://www.w3.org/2000/svg">
<g clip-path="url(#clip0_6180_79039)">
<path d="M92.0815 10.9785C92.1005 11.8375 92.1642 12.5971 92.0998 13.3063C92.091 13.3983 92.0903 13.4235 92.0293 13.6847C91.8402 13.6847 91.6036 13.6847 91.4606 13.6847C90.9393 13.6891 90.4079 13.6818 89.8859 13.6847C89.364 13.6876 88.8298 13.6847 88.3065 13.6847C87.7839 13.6847 87.2891 13.6847 86.7644 13.6847C86.2404 13.6847 85.6805 13.6847 85.1572 13.6847C84.6346 13.6847 84.1296 13.6847 83.607 13.6847C83.3582 13.6847 83.0993 13.6431 82.8593 13.6609C82.7373 13.6713 82.618 13.6876 82.5041 13.7144C82.4038 13.7381 82.3035 13.7633 82.233 13.8271C82.1001 13.9473 82.0513 14.2529 82.2492 14.4606C82.3279 14.5437 82.4363 14.5927 82.5373 14.6269C82.9102 14.7485 83.3013 14.6906 83.6463 14.6936C84.0401 14.6966 84.4346 14.6996 84.8264 14.7009C85.6134 14.704 86.397 14.7024 87.182 14.7009C87.8192 14.7009 88.4543 14.7009 89.0908 14.7009C91.1176 14.7069 92.6095 16.1446 92.5723 18.0481C92.5363 19.8567 91.1766 21.1148 89.2345 21.1192C86.3096 21.1266 83.3826 21.1237 80.4556 21.1251C80.213 21.1251 79.971 21.1251 79.5975 21.1251C79.5934 20.2513 79.5399 19.4486 79.5778 18.6876C79.5873 18.4829 79.5778 18.6876 79.5812 18.4338C82.3557 18.4235 85.9801 18.4428 88.7614 18.4502C88.9844 18.4502 89.2101 18.4605 89.3979 18.3908C89.5328 18.3404 89.6433 18.247 89.6778 18.1104C89.7131 17.9739 89.6629 17.7885 89.5294 17.6475C89.427 17.5393 89.2867 17.468 89.1545 17.4339C88.9654 17.3863 88.7851 17.4087 88.6089 17.4072C88.4116 17.4058 88.2143 17.4028 88.0184 17.4013C87.6246 17.3983 87.2321 17.3953 86.8383 17.3939C86.0534 17.3908 85.2691 17.3908 84.4855 17.3939C83.8829 17.3968 83.2796 17.3998 82.6776 17.4058C80.5634 17.425 78.9773 15.9459 79.1359 14.0112C79.2925 12.1033 80.3472 10.9861 82.5028 10.9772C85.6446 10.9652 88.7946 10.9742 92.0795 10.9742L92.0815 10.9785Z" fill="#00AEFF"/>
<path d="M107.805 21.128C107.781 18.919 107.757 16.8553 107.734 14.793C107.724 13.7248 107.74 12.664 107.695 11.5854C107.678 11.1448 107.811 10.9682 108.297 10.9711C111.726 10.9934 115.141 10.9756 118.565 10.9859C120.029 10.9904 121.155 11.9859 121.281 13.4058C121.355 14.2366 121.358 15.0511 121.33 15.8508C121.302 16.6964 120.993 17.0926 119.617 18.2928C120.278 18.3907 120.746 18.4605 121.349 18.5495C121.366 19.3462 121.392 20.1265 121.386 20.8952C121.386 20.9975 121.249 21.1103 121.136 21.1117C120.426 21.1177 119.719 21.1504 118.982 21.0642C118.283 20.9827 117.659 20.4915 117.252 19.867C116.39 18.5406 115.4 18.0852 114.14 18.2765C113.459 18.3803 112.681 18.2943 111.798 18.2943C111.795 17.4116 111.759 16.6222 111.815 15.8686C111.827 15.7099 112.156 15.6134 112.386 15.6105C114.1 15.5897 115.829 15.6031 117.55 15.6001C118.467 15.5986 118.721 15.3049 118.663 14.437C118.626 13.8717 118.327 13.6417 117.777 13.6432C115.588 13.6462 113.403 13.661 111.204 13.6388C110.715 13.6343 110.68 13.9029 110.686 14.2753C110.718 16.3464 110.725 18.4087 110.771 20.4843C110.776 20.7321 110.771 20.4843 110.762 21.1267L110.143 21.1266C109.382 21.1266 108.659 21.1251 107.802 21.1251L107.805 21.128Z" fill="#00AEFF"/>
<path d="M56.4821 10.98C57.7612 10.98 59.0377 10.9727 60.3207 10.983C62.0928 10.9979 63.4755 12.2144 63.5702 13.8924C63.6484 15.2796 63.7206 16.6742 63.629 18.002C63.4898 20.0287 62.3513 21.1504 60.0587 21.134C57.6179 21.1162 55.1931 21.1459 52.7578 21.143C50.9493 21.1415 49.582 19.9383 49.4805 18.2024C49.398 16.7677 49.3248 15.3227 49.4415 13.9592C49.6039 12.0588 50.7036 10.9757 52.8668 10.9816C54.0732 10.9846 55.2773 10.9816 56.4827 10.9816L56.4821 10.98ZM56.554 18.4441C56.554 18.4441 56.5551 18.4471 56.5562 18.45C57.6375 18.45 58.7131 18.4352 59.8007 18.456C60.4145 18.4664 60.6621 18.1549 60.6714 17.6311C60.6888 16.6208 60.6909 15.6045 60.6729 14.5823C60.6599 13.8715 60.4398 13.6609 59.7046 13.6579C57.5624 13.649 55.43 13.6624 53.2896 13.6579C52.6707 13.6579 52.3744 13.922 52.3857 14.5169C52.4072 15.5406 52.3882 16.5509 52.4012 17.5717C52.4092 18.2453 52.6013 18.4323 53.3098 18.4426C54.3965 18.4575 55.4739 18.447 56.5551 18.447L56.554 18.4441Z" fill="#00AEFF"/>
<path d="M48.4103 10.9772C48.4107 11.8332 48.4581 12.9266 48.4988 13.6522C48.0881 13.6522 47.9738 13.6388 47.6982 13.6403C44.9004 13.6596 42.0895 13.6476 39.2839 13.6462C38.0209 13.6462 37.9218 13.7411 37.9352 14.9221C37.9448 15.7827 37.9439 16.6387 37.9614 17.5007C37.977 18.2425 38.1933 18.4547 38.9737 18.4562C41.8322 18.465 44.6838 18.4591 47.5389 18.4591C47.799 18.4591 48.0589 18.4591 48.4385 18.4591C48.4578 19.33 48.5023 20.0778 48.4683 20.7973C48.4614 20.9575 48.4683 20.7973 48.4542 21.1088C45.1388 21.1267 41.3844 21.1355 38.0525 21.1088C36.7325 21.0984 35.5281 20.143 35.1885 18.8195C35.0139 18.143 35.0207 17.4814 35.0002 16.83C34.9727 15.9651 34.9991 15.1179 34.9987 14.2619C34.9982 12.2175 36.3064 10.9801 38.4803 10.9787C41.4821 10.9757 44.4841 10.9772 47.4871 10.9772C47.7544 10.9772 48.0202 10.9772 48.4088 10.9772H48.4103Z" fill="#00AEFF"/>
<path d="M151.076 10.9771C151.076 11.8331 151.123 12.9265 151.164 13.652C150.754 13.652 150.639 13.6387 150.363 13.6402C147.566 13.6594 144.755 13.6475 141.949 13.646C140.686 13.646 140.587 13.741 140.601 14.922C140.61 15.7825 140.609 16.6386 140.627 17.5006C140.642 18.2424 140.858 18.4545 141.639 18.456C144.498 18.465 147.349 18.459 150.204 18.459C150.464 18.459 150.724 18.459 151.104 18.459C151.123 19.3298 151.168 20.0776 151.134 20.7971C151.127 20.9574 151.134 20.7971 151.12 21.1087C147.804 21.1266 144.05 21.1354 140.717 21.1087C139.398 21.0983 138.194 20.1428 137.854 18.8195C137.679 18.143 137.686 17.4813 137.666 16.8299C137.638 15.965 137.664 15.1178 137.664 14.2617C137.664 12.2173 138.972 10.98 141.146 10.9785C144.147 10.9756 147.15 10.9771 150.152 10.9771C150.42 10.9771 150.685 10.9771 151.074 10.9771H151.076Z" fill="#00AEFF"/>
<path d="M75.2694 18.2157C75.2789 17.8121 75.2931 17.5125 75.2904 17.2067C75.2816 15.8345 75.2687 14.4607 75.2545 13.0868C75.2477 12.4726 75.2192 11.8509 75.2369 11.2455C75.2403 11.1283 75.3785 10.9964 75.5046 10.9933C76.2631 10.9711 77.0352 10.9829 77.8053 10.9874C78.0445 10.9874 78.1876 11.0942 78.1896 11.342C78.1957 12.1966 78.2032 13.0525 78.214 13.9087C78.2242 14.6787 78.2404 15.4501 78.2472 16.2188C78.252 17.0347 78.2452 17.8477 78.2486 18.6637C78.2526 19.3937 78.2533 20.1236 78.2838 20.8609C78.292 21.0583 78.2242 21.1266 78.0371 21.1266C76.96 21.1221 75.8924 21.1444 74.8058 21.1087C73.9998 21.082 73.3233 20.6058 72.7342 19.8951C71.8639 18.8447 70.9691 17.8092 70.0865 16.7646C69.3829 15.9323 68.6868 15.0971 67.9811 14.2663C67.9127 14.1861 67.8035 14.1312 67.7139 14.0644C67.6833 14.1371 67.6243 14.2009 67.6242 14.284C67.6277 15.5022 67.6398 16.7231 67.6468 17.9426C67.651 18.9396 67.6552 19.9367 67.6424 20.9277C67.6418 21.0137 67.5363 21.1117 67.4438 21.1132C66.6517 21.128 65.851 21.1235 65.0514 21.1221C64.7707 21.1221 64.6912 20.9441 64.6857 20.7422C64.6736 20.3164 64.6781 19.8951 64.6746 19.4723C64.669 18.686 64.6629 17.8982 64.6587 17.1118C64.6544 16.3255 64.6568 15.5408 64.6507 14.7529C64.6463 14.149 64.6316 13.5408 64.6208 12.9354C64.6101 12.3583 64.5841 11.7753 64.6025 11.2085C64.606 11.1031 64.7604 10.9978 64.8855 10.9964C65.9248 10.9829 66.9618 10.9592 68.0211 11.0081C68.8034 11.0452 69.5083 11.4518 70.1062 12.1906C70.9169 13.1921 71.7703 14.1728 72.6048 15.1623C73.3606 16.0585 74.1123 16.9575 74.8702 17.8522C74.9576 17.956 75.0755 18.0421 75.2667 18.2156L75.2694 18.2157Z" fill="#00AEFF"/>
<path d="M98.4764 13.6803C98.2622 13.6803 98.0439 13.6817 97.8724 13.6817C96.4801 13.6817 95.0857 13.6817 93.6928 13.6817C93.4711 13.6817 93.2996 13.6847 93.202 13.6847C93.1932 13.2321 93.1966 13.4087 93.1932 13.2321C93.1776 12.5348 93.1762 11.8435 93.1952 11.1581C93.1972 11.0689 93.1952 11.1581 93.202 10.9785C93.5511 10.9785 94.13 10.9785 94.4784 10.9785C98.2906 10.9785 102.105 10.9785 105.917 10.9785C106.029 10.9785 106.178 10.9785 106.682 10.9785C106.698 11.3909 106.692 11.0735 106.698 11.3909C106.709 12.0289 106.724 12.6668 106.737 13.3048C106.739 13.4324 106.737 13.3048 106.739 13.6846L106.327 13.6847C104.794 13.6847 102.838 13.6847 101.384 13.6847C101.42 14.2648 101.39 13.7573 101.42 14.2648C101.458 14.9072 101.455 15.5392 101.465 16.1742C101.477 16.9842 101.487 17.7942 101.495 18.6029C101.5 19.1993 101.498 20.4425 101.496 20.4722C101.483 20.7779 101.496 20.4722 101.504 21.1325C101.329 21.1325 101.128 21.131 100.734 21.1325C99.6714 21.1369 99.6707 21.1325 98.8898 21.1325H98.5408C98.5347 20.9648 98.5353 20.8995 98.534 20.7719C98.5231 19.5984 98.5042 18.4219 98.4967 17.2498C98.4899 16.2973 98.5001 15.3507 98.4947 14.3984C98.494 14.1891 98.4865 13.9829 98.4797 13.6817L98.4764 13.6803Z" fill="#00AEFF"/>
<path d="M136.516 10.9771C136.524 11.4339 136.527 11.8094 136.531 12.1937C136.549 14.1328 136.574 16.0733 136.585 18.0095C136.595 19.6088 135.229 21.1563 133.298 21.134C130.79 21.1058 128.303 21.128 125.806 21.131C125.256 21.131 124.702 21.0672 124.111 20.7483C123.163 20.2365 122.499 19.2988 122.436 18.2439C122.37 17.1312 122.387 16.0407 122.375 14.9443C122.362 13.6951 122.353 12.4475 122.356 11.2041C122.356 11.1551 122.354 11.0498 122.358 10.9772L122.532 10.9771C123.383 10.9771 124.213 10.9771 125.056 10.9771C125.104 10.9771 125.056 10.9771 125.271 10.9771C125.272 11.115 125.267 11.2693 125.268 11.3881C125.291 13.48 125.311 15.5704 125.336 17.6623C125.342 18.2335 125.607 18.4738 126.221 18.4753C128.397 18.4782 130.575 18.4813 132.751 18.4827C133.398 18.4827 133.651 18.2335 133.646 17.6162C133.627 15.4976 133.613 13.3805 133.584 11.2603C133.583 11.1654 133.583 11.1298 133.59 10.9799L136.517 10.98L136.516 10.9771Z" fill="#00AEFF"/>
<path d="M157.357 13.6772C157.142 13.6772 156.924 13.6787 156.753 13.6787C155.36 13.6787 153.966 13.6787 152.573 13.6787C152.351 13.6787 152.18 13.6818 152.082 13.6818C152.073 13.2291 152.077 13.4057 152.073 13.2291C152.058 12.5319 152.057 11.8405 152.075 11.155C152.078 11.066 152.075 11.155 152.082 10.9756C152.431 10.9756 153.01 10.9756 153.359 10.9756C157.171 10.9756 160.985 10.9756 164.797 10.9756C164.909 10.9756 165.058 10.9756 165.562 10.9756C165.578 11.3881 165.573 11.0704 165.578 11.3881C165.589 12.0259 165.605 12.6639 165.617 13.3019C165.619 13.4294 165.617 13.3019 165.62 13.6816L165.208 13.6818C163.674 13.6818 161.719 13.6818 160.264 13.6818C160.301 14.2617 160.27 13.7544 160.301 14.2617C160.339 14.9041 160.335 15.5363 160.345 16.1712C160.357 16.9813 160.367 17.7913 160.375 18.5998C160.381 19.1963 160.378 20.4396 160.376 20.4693C160.364 20.7749 160.376 20.4693 160.385 21.1295C160.21 21.1295 160.008 21.128 159.615 21.1295C158.552 21.1339 158.551 21.1295 157.77 21.1295H157.421C157.415 20.9618 157.416 20.8966 157.414 20.769C157.403 19.5954 157.384 18.419 157.377 17.2468C157.37 16.2944 157.38 15.3478 157.375 14.3953C157.374 14.1861 157.367 13.98 157.36 13.6788L157.357 13.6772Z" fill="#00AEFF"/>
<path d="M172.892 21.128C172.907 18.919 172.919 16.8552 172.934 14.793C172.941 13.7247 172.976 12.664 172.951 11.5853C172.941 11.1447 173.078 10.9682 173.563 10.9711C176.992 10.9934 180.407 10.9756 183.832 10.9859C185.296 10.9904 186.404 11.9859 186.505 13.4058C186.564 14.2366 186.552 15.0511 186.51 15.8508C186.452 16.9814 186.461 18.2426 184.952 18.2426C183.451 18.2426 178.917 18.2943 176.935 18.2943C176.947 17.4116 176.926 16.6222 176.995 15.8686C177.01 15.7099 177.34 15.6134 177.57 15.6105C179.285 15.5897 181.014 15.603 182.735 15.6001C183.652 15.5986 183.911 15.3048 183.868 14.437C183.841 13.8716 183.547 13.6417 182.996 13.6432C180.807 13.6462 178.622 13.661 176.423 13.6388C175.935 13.6343 175.895 13.9029 175.894 14.2753C175.89 16.3464 175.861 18.4087 175.869 20.4843C175.87 20.7321 175.869 20.4843 175.848 21.1267L175.23 21.1266C174.469 21.1266 173.746 21.1251 172.89 21.1251L172.892 21.128Z" fill="#00AEFF"/>
<path d="M201.317 10.9771C201.303 11.8331 201.331 12.9265 201.358 13.652C200.948 13.652 200.834 13.6387 200.558 13.6402C197.76 13.6594 194.949 13.6475 192.143 13.646C190.881 13.646 190.78 13.741 190.773 14.922C190.767 15.7825 190.751 16.6386 190.753 17.5006C190.756 18.2424 190.968 18.4545 191.748 18.456C194.607 18.465 197.458 18.459 200.314 18.459C200.574 18.459 200.833 18.459 201.213 18.459C201.217 19.3298 201.248 20.0776 201.202 20.7971C201.192 20.9574 201.202 20.7971 201.182 21.1087C197.866 21.1266 194.112 21.1354 190.78 21.1087C189.46 21.0983 188.273 20.1428 187.957 18.8195C187.794 18.143 187.813 17.4813 187.804 16.8299C187.792 15.965 187.833 15.1178 187.848 14.2617C187.883 12.2173 189.214 10.98 191.388 10.9785C194.389 10.9756 197.391 10.9771 200.394 10.9771C200.661 10.9771 200.927 10.9771 201.316 10.9771H201.317Z" fill="#00AEFF"/>
<path d="M13.4874 27.1706L8.17754 24.0933C7.91453 23.9353 7.58449 24.1322 7.58449 24.4379V27.8881C7.58449 28.0332 7.66441 28.1678 7.78296 28.2326L13.49 31.5636C13.6087 31.6311 13.7686 31.6311 13.8872 31.5636L26.7788 24.0933C27.0419 23.9353 27.0419 23.5493 26.7788 23.4044L23.7797 21.6663C23.661 21.599 23.5011 21.599 23.3825 21.6663L13.8846 27.1732C13.7634 27.238 13.619 27.238 13.4874 27.1706Z" fill="#00AEFF"/>
<path d="M3.79096 21.5316V10.308C3.79096 10.1629 3.87089 10.0282 3.98949 9.96337L13.4874 4.4565C13.6061 4.38919 13.7659 4.38919 13.8845 4.4565L23.3825 9.96351C23.5011 10.0308 23.661 10.0308 23.7797 9.96351L26.7788 8.22536C27.0418 8.06734 27.0418 7.68143 26.7788 7.53641L13.8845 0.0505576C13.7659 -0.0168525 13.6061 -0.0168525 13.4874 0.0505576L0.198526 7.75918C0.079931 7.82645 0 7.9586 0 8.10363V23.5209C0 23.666 0.079931 23.8007 0.198526 23.8654L3.19778 25.6035C3.46081 25.7614 3.79086 25.5647 3.79086 25.259L3.79096 21.5316Z" fill="#00AEFF"/>
<path d="M19.2898 12.5874L21.2961 11.3985C21.5437 11.2508 21.5437 10.8986 21.2961 10.7483L14.2249 6.64795C13.9773 6.50026 13.6653 6.68418 13.6653 6.97171V24.6683C13.6653 24.9559 13.9773 25.145 14.2249 24.9922L21.2961 20.8892C21.5437 20.7519 21.5437 20.3892 21.2961 20.239L19.2898 19.0501C19.1789 18.975 19.0267 18.975 18.9159 19.0501L16.9224 20.2002C16.6748 20.3478 16.3627 20.1639 16.3627 19.8764V11.7611C16.3627 11.4736 16.6748 11.2845 16.9224 11.4373L18.9159 12.5874C19.0293 12.6495 19.1789 12.6495 19.2898 12.5874Z" fill="#00AEFF"/>
<path d="M10.4623 19.5137V12.1108C10.4623 11.8051 10.1323 11.6056 9.86926 11.7663L6.86996 13.5043C6.75138 13.5717 6.67145 13.7038 6.67145 13.8488V17.7912C6.67145 17.9363 6.75138 18.0709 6.86996 18.1357L9.86926 19.8738C10.1323 20.0188 10.4623 19.8194 10.4623 19.5137Z" fill="#00AEFF"/>
<path d="M27.4492 19.5137V12.1108C27.4492 11.8051 27.1191 11.6056 26.8561 11.7663L23.8568 13.5043C23.7383 13.5717 23.6583 13.7038 23.6583 13.8488V17.7912C23.6583 17.9363 23.7383 18.0709 23.8568 18.1358L26.8561 19.8738C27.1191 20.0188 27.4492 19.8194 27.4492 19.5137Z" fill="#00AEFF"/>
</g>
<defs>
<clipPath id="clip0_6180_79039">
<rect width="202" height="32" fill="white"/>
</clipPath>
</defs>
</svg>
