<svg xmlns="http://www.w3.org/2000/svg">
	<symbol viewBox="0 0 24 24" fill="none" id="arr-menu">
		<path d="M13 8L17 12L13 16M7 8L11 12L7 16" stroke="currentColor" stroke-width="2" stroke-linecap="round" stroke-linejoin="round"/>
	</symbol>
	<symbol viewBox="0 0 24 24" fill="none" id="cart">
		<path d="M17 17C15.8954 17 15 17.8954 15 19C15 20.1046 15.8954 21 17 21C18.1046 21 19 20.1046 19 19C19 17.8954 18.1046 17 17 17ZM17 17H9.29395C8.83269 17 8.60197 17 8.41211 16.918C8.24466 16.8456 8.09934 16.7288 7.99349 16.5802C7.87348 16.4118 7.82609 16.1863 7.72945 15.7353L5.27148 4.26477C5.17484 3.81376 5.12587 3.58825 5.00586 3.4198C4.90002 3.27123 4.75525 3.15441 4.5878 3.08205C4.39794 3 4.16779 3 3.70653 3H3M6 6H18.8732C19.595 6 19.9557 6 20.1979 6.15036C20.4101 6.28206 20.5652 6.48838 20.6329 6.72876C20.7102 7.00319 20.611 7.34996 20.411 8.04346L19.0264 12.8435C18.9068 13.2581 18.8469 13.4655 18.7256 13.6193C18.6185 13.7551 18.4772 13.8608 18.3171 13.926C18.1356 14 17.9199 14 17.4883 14H7.73047M8 21C6.89543 21 6 20.1046 6 19C6 17.8954 6.89543 17 8 17C9.10457 17 10 17.8954 10 19C10 20.1046 9.10457 21 8 21Z" stroke="currentColor" stroke-width="2" stroke-linecap="round" stroke-linejoin="round"/>
	</symbol>
	<symbol viewBox="0 0 24 24" fill="none" id="menu">
		<path d="M17 12C17 12.5523 17.4477 13 18 13C18.5523 13 19 12.5523 19 12C19 11.4477 18.5523 11 18 11C17.4477 11 17 11.4477 17 12Z" stroke="currentColor" stroke-width="2" stroke-linecap="round" stroke-linejoin="round"/><path d="M11 12C11 12.5523 11.4477 13 12 13C12.5523 13 13 12.5523 13 12C13 11.4477 12.5523 11 12 11C11.4477 11 11 11.4477 11 12Z" stroke="currentColor" stroke-width="2" stroke-linecap="round" stroke-linejoin="round"/><path d="M5 12C5 12.5523 5.44772 13 6 13C6.55228 13 7 12.5523 7 12C7 11.4477 6.55228 11 6 11C5.44772 11 5 11.4477 5 12Z" stroke="currentColor" stroke-width="2" stroke-linecap="round" stroke-linejoin="round"/>
	</symbol>
	<symbol viewBox="0 0 24 24" fill="none" id="close">
		<path d="M16 16L8 8M16 8L8 16" stroke="currentColor" stroke-width="2" stroke-linecap="round" stroke-linejoin="round"/>
	</symbol>
	<symbol viewBox="0 0 24 24" fill="none" id="arr-down">
		<path d="M15 11L12 14L9 11" stroke="currentColor" stroke-width="2" stroke-linecap="round" stroke-linejoin="round"/>
	</symbol>
	<symbol viewBox="0 0 24 24" fill="none" id="youtube">
		<path d="M23.7609 7.1998C23.7609 7.1998 23.5266 5.54512 22.8047 4.81855C21.8906 3.8623 20.8688 3.85762 20.4 3.80137C17.0438 3.55762 12.0047 3.55762 12.0047 3.55762H11.9953C11.9953 3.55762 6.95625 3.55762 3.6 3.80137C3.13125 3.85762 2.10938 3.8623 1.19531 4.81855C0.473438 5.54512 0.24375 7.1998 0.24375 7.1998C0.24375 7.1998 0 9.14512 0 11.0857V12.9045C0 14.8451 0.239062 16.7904 0.239062 16.7904C0.239062 16.7904 0.473437 18.4451 1.19062 19.1717C2.10469 20.1279 3.30469 20.0951 3.83906 20.1982C5.76094 20.3811 12 20.4373 12 20.4373C12 20.4373 17.0438 20.4279 20.4 20.1889C20.8688 20.1326 21.8906 20.1279 22.8047 19.1717C23.5266 18.4451 23.7609 16.7904 23.7609 16.7904C23.7609 16.7904 24 14.8498 24 12.9045V11.0857C24 9.14512 23.7609 7.1998 23.7609 7.1998ZM9.52031 15.1123V8.36699L16.0031 11.7514L9.52031 15.1123Z" fill="currentColor"/>
	</symbol>
	<symbol viewBox="0 0 24 24" fill="none" id="vk">
		<g clip-path="url(#clip0_6180_87509)"><path d="M18.9128 16.8014H17.2785C16.6598 16.8014 16.4685 16.3094 15.357 15.1829C14.3888 14.2454 13.9605 14.1194 13.7228 14.1194C13.389 14.1194 13.2938 14.2147 13.2938 14.6752V16.1512C13.2938 16.5487 13.167 16.7864 12.1193 16.7864C10.0058 16.6447 8.18928 15.4919 7.13478 13.8119L7.11903 13.7857C5.89503 12.2654 4.99278 10.4332 4.54653 8.42918L4.53003 8.34143C4.53003 8.10368 4.62528 7.88093 5.08578 7.88093H6.72003C7.13253 7.88093 7.29153 8.07143 7.45128 8.51543C8.25978 10.8494 9.60978 12.8969 10.1655 12.8969C10.3718 12.8969 10.467 12.8017 10.467 12.2782V9.86393C10.4033 8.75243 9.81603 8.65793 9.81603 8.26118C9.82278 8.04893 9.99678 7.87943 10.2098 7.87943C10.2165 7.87943 10.2225 7.87943 10.2293 7.88018H10.2285H12.8003C13.1498 7.88018 13.2765 8.07068 13.2765 8.48318V11.7382C13.2765 12.0869 13.4355 12.2144 13.5308 12.2144C13.737 12.2144 13.9125 12.0869 14.2928 11.7067C15.0833 10.7414 15.759 9.63743 16.2743 8.44718L16.3088 8.35718C16.4175 8.08493 16.6785 7.89593 16.9838 7.89593C16.998 7.89593 17.0115 7.89668 17.0258 7.89743H17.0235H18.6578C19.1498 7.89743 19.2615 8.15018 19.1498 8.50043C18.4943 9.94418 17.7578 11.1847 16.9043 12.3337L16.9433 12.2782C16.7693 12.5639 16.7055 12.6907 16.9433 13.0094C17.1173 13.2472 17.6895 13.7392 18.0705 14.1839C18.6218 14.7292 19.0838 15.3637 19.4325 16.0642L19.4513 16.1054C19.6103 16.5644 19.3718 16.8029 18.9113 16.8029L18.9128 16.8014ZM15.453 0.75293H8.54778C2.24553 0.75293 0.753784 2.24468 0.753784 8.54693V15.4522C0.753784 21.7544 2.24553 23.2462 8.54778 23.2462H15.453C21.7553 23.2462 23.247 21.7544 23.247 15.4522V8.54693C23.247 2.24468 21.7388 0.75293 15.453 0.75293Z" fill="currentColor"/></g><defs><clipPath id="clip0_6180_87509"><rect width="24" height="24" fill="white"/></clipPath></defs>
	</symbol>
	<symbol viewBox="0 0 24 24" fill="none" id="tiktok">
		<path d="M17.0725 0H13.0278V16.3478C13.0278 18.2957 11.4722 19.8957 9.53626 19.8957C7.60034 19.8957 6.04469 18.2957 6.04469 16.3478C6.04469 14.4348 7.56577 12.8695 9.43257 12.8V8.69567C5.31872 8.7652 2 12.1391 2 16.3478C2 20.5913 5.38786 24 9.57085 24C13.7538 24 17.1416 20.5565 17.1416 16.3478V7.9652C18.6627 9.07827 20.5295 9.73913 22.5 9.77393V5.66957C19.4579 5.56522 17.0725 3.06087 17.0725 0Z" fill="currentColor"/>
	</symbol>
	<symbol viewBox="0 0 24 24" fill="none" id="tg">
		<g clip-path="url(#clip0_6180_87516)"><path d="M12 0C18.6274 0 24 5.37258 24 12C24 18.6274 18.6274 24 12 24C5.37258 24 0 18.6274 0 12C0 5.37258 5.37258 0 12 0ZM16.9062 7.22363C16.4549 7.23162 15.762 7.47337 12.4297 8.85938C11.2624 9.34491 8.92944 10.3491 5.43164 11.873C4.8638 12.0989 4.56627 12.3201 4.53906 12.5361C4.48706 12.951 5.08449 13.08 5.83594 13.3242C6.44858 13.5234 7.27267 13.7563 7.70117 13.7656C8.08983 13.774 8.52402 13.614 9.00293 13.2852C12.2713 11.0789 13.9585 9.96349 14.0645 9.93945C14.1391 9.92251 14.2424 9.90171 14.3125 9.96387C14.3826 10.0262 14.3756 10.1439 14.3682 10.1758C14.3088 10.4289 11.2432 13.2181 11.0625 13.4053C10.3873 14.1065 9.61909 14.5357 10.8037 15.3164C11.8288 15.9919 12.4255 16.423 13.4814 17.1152C14.1564 17.5577 14.686 18.0827 15.3828 18.0186C15.7034 17.9889 16.035 17.6871 16.2031 16.7881C16.6007 14.6628 17.3819 10.0586 17.5625 8.16113C17.5783 7.99489 17.558 7.78187 17.542 7.68848C17.526 7.59509 17.4924 7.46175 17.3711 7.36328C17.2273 7.24684 17.0054 7.22189 16.9062 7.22363Z" fill="currentColor"/></g><defs><clipPath id="clip0_6180_87516"><rect width="24" height="24" fill="white"/></clipPath></defs>
	</symbol>
</svg>