<svg xmlns="http://www.w3.org/2000/svg">
	<symbol viewBox="0 0 24 24" fill="none" id="arr-menu">
		<path d="M13 8L17 12L13 16M7 8L11 12L7 16" stroke="currentColor" stroke-width="2" stroke-linecap="round" stroke-linejoin="round"/>
	</symbol>
	<symbol viewBox="0 0 24 24" fill="none" id="arr-back">
		<path d="M17 12L7 12M11 8L7 12L11 16" stroke="white" stroke-width="2" stroke-linecap="round" stroke-linejoin="round"/>
	</symbol>
	<symbol viewBox="0 0 24 24" fill="none" id="cart">
		<path d="M17 17C15.8954 17 15 17.8954 15 19C15 20.1046 15.8954 21 17 21C18.1046 21 19 20.1046 19 19C19 17.8954 18.1046 17 17 17ZM17 17H9.29395C8.83269 17 8.60197 17 8.41211 16.918C8.24466 16.8456 8.09934 16.7288 7.99349 16.5802C7.87348 16.4118 7.82609 16.1863 7.72945 15.7353L5.27148 4.26477C5.17484 3.81376 5.12587 3.58825 5.00586 3.4198C4.90002 3.27123 4.75525 3.15441 4.5878 3.08205C4.39794 3 4.16779 3 3.70653 3H3M6 6H18.8732C19.595 6 19.9557 6 20.1979 6.15036C20.4101 6.28206 20.5652 6.48838 20.6329 6.72876C20.7102 7.00319 20.611 7.34996 20.411 8.04346L19.0264 12.8435C18.9068 13.2581 18.8469 13.4655 18.7256 13.6193C18.6185 13.7551 18.4772 13.8608 18.3171 13.926C18.1356 14 17.9199 14 17.4883 14H7.73047M8 21C6.89543 21 6 20.1046 6 19C6 17.8954 6.89543 17 8 17C9.10457 17 10 17.8954 10 19C10 20.1046 9.10457 21 8 21Z" stroke="currentColor" stroke-width="2" stroke-linecap="round" stroke-linejoin="round"/>
	</symbol>
	<symbol viewBox="0 0 24 24" fill="none" id="menu">
		<path d="M17 12C17 12.5523 17.4477 13 18 13C18.5523 13 19 12.5523 19 12C19 11.4477 18.5523 11 18 11C17.4477 11 17 11.4477 17 12Z" stroke="currentColor" stroke-width="2" stroke-linecap="round" stroke-linejoin="round"/><path d="M11 12C11 12.5523 11.4477 13 12 13C12.5523 13 13 12.5523 13 12C13 11.4477 12.5523 11 12 11C11.4477 11 11 11.4477 11 12Z" stroke="currentColor" stroke-width="2" stroke-linecap="round" stroke-linejoin="round"/><path d="M5 12C5 12.5523 5.44772 13 6 13C6.55228 13 7 12.5523 7 12C7 11.4477 6.55228 11 6 11C5.44772 11 5 11.4477 5 12Z" stroke="currentColor" stroke-width="2" stroke-linecap="round" stroke-linejoin="round"/>
	</symbol>
	<symbol viewBox="0 0 24 24" fill="none" id="close">
		<path d="M16 16L8 8M16 8L8 16" stroke="currentColor" stroke-width="2" stroke-linecap="round" stroke-linejoin="round"/>
	</symbol>
	<symbol viewBox="0 0 24 24" fill="none" id="arr-down">
		<path d="M15 11L12 14L9 11" stroke="currentColor" stroke-width="2" stroke-linecap="round" stroke-linejoin="round"/>
	</symbol>
	<symbol viewBox="0 0 24 24" fill="none" id="youtube">
		<path d="M23.7609 7.1998C23.7609 7.1998 23.5266 5.54512 22.8047 4.81855C21.8906 3.8623 20.8688 3.85762 20.4 3.80137C17.0438 3.55762 12.0047 3.55762 12.0047 3.55762H11.9953C11.9953 3.55762 6.95625 3.55762 3.6 3.80137C3.13125 3.85762 2.10938 3.8623 1.19531 4.81855C0.473438 5.54512 0.24375 7.1998 0.24375 7.1998C0.24375 7.1998 0 9.14512 0 11.0857V12.9045C0 14.8451 0.239062 16.7904 0.239062 16.7904C0.239062 16.7904 0.473437 18.4451 1.19062 19.1717C2.10469 20.1279 3.30469 20.0951 3.83906 20.1982C5.76094 20.3811 12 20.4373 12 20.4373C12 20.4373 17.0438 20.4279 20.4 20.1889C20.8688 20.1326 21.8906 20.1279 22.8047 19.1717C23.5266 18.4451 23.7609 16.7904 23.7609 16.7904C23.7609 16.7904 24 14.8498 24 12.9045V11.0857C24 9.14512 23.7609 7.1998 23.7609 7.1998ZM9.52031 15.1123V8.36699L16.0031 11.7514L9.52031 15.1123Z" fill="currentColor"/>
	</symbol>
	<symbol viewBox="0 0 24 24" fill="none" id="vk">
		<g clip-path="url(#clip0_6180_87509)"><path d="M18.9128 16.8014H17.2785C16.6598 16.8014 16.4685 16.3094 15.357 15.1829C14.3888 14.2454 13.9605 14.1194 13.7228 14.1194C13.389 14.1194 13.2938 14.2147 13.2938 14.6752V16.1512C13.2938 16.5487 13.167 16.7864 12.1193 16.7864C10.0058 16.6447 8.18928 15.4919 7.13478 13.8119L7.11903 13.7857C5.89503 12.2654 4.99278 10.4332 4.54653 8.42918L4.53003 8.34143C4.53003 8.10368 4.62528 7.88093 5.08578 7.88093H6.72003C7.13253 7.88093 7.29153 8.07143 7.45128 8.51543C8.25978 10.8494 9.60978 12.8969 10.1655 12.8969C10.3718 12.8969 10.467 12.8017 10.467 12.2782V9.86393C10.4033 8.75243 9.81603 8.65793 9.81603 8.26118C9.82278 8.04893 9.99678 7.87943 10.2098 7.87943C10.2165 7.87943 10.2225 7.87943 10.2293 7.88018H10.2285H12.8003C13.1498 7.88018 13.2765 8.07068 13.2765 8.48318V11.7382C13.2765 12.0869 13.4355 12.2144 13.5308 12.2144C13.737 12.2144 13.9125 12.0869 14.2928 11.7067C15.0833 10.7414 15.759 9.63743 16.2743 8.44718L16.3088 8.35718C16.4175 8.08493 16.6785 7.89593 16.9838 7.89593C16.998 7.89593 17.0115 7.89668 17.0258 7.89743H17.0235H18.6578C19.1498 7.89743 19.2615 8.15018 19.1498 8.50043C18.4943 9.94418 17.7578 11.1847 16.9043 12.3337L16.9433 12.2782C16.7693 12.5639 16.7055 12.6907 16.9433 13.0094C17.1173 13.2472 17.6895 13.7392 18.0705 14.1839C18.6218 14.7292 19.0838 15.3637 19.4325 16.0642L19.4513 16.1054C19.6103 16.5644 19.3718 16.8029 18.9113 16.8029L18.9128 16.8014ZM15.453 0.75293H8.54778C2.24553 0.75293 0.753784 2.24468 0.753784 8.54693V15.4522C0.753784 21.7544 2.24553 23.2462 8.54778 23.2462H15.453C21.7553 23.2462 23.247 21.7544 23.247 15.4522V8.54693C23.247 2.24468 21.7388 0.75293 15.453 0.75293Z" fill="currentColor"/></g><defs><clipPath id="clip0_6180_87509"><rect width="24" height="24" fill="white"/></clipPath></defs>
	</symbol>
	<symbol viewBox="0 0 24 24" fill="none" id="tiktok">
		<path d="M17.0725 0H13.0278V16.3478C13.0278 18.2957 11.4722 19.8957 9.53626 19.8957C7.60034 19.8957 6.04469 18.2957 6.04469 16.3478C6.04469 14.4348 7.56577 12.8695 9.43257 12.8V8.69567C5.31872 8.7652 2 12.1391 2 16.3478C2 20.5913 5.38786 24 9.57085 24C13.7538 24 17.1416 20.5565 17.1416 16.3478V7.9652C18.6627 9.07827 20.5295 9.73913 22.5 9.77393V5.66957C19.4579 5.56522 17.0725 3.06087 17.0725 0Z" fill="currentColor"/>
	</symbol>
	<symbol viewBox="0 0 24 24" fill="none" id="tg">
		<g clip-path="url(#clip0_6180_87516)"><path d="M12 0C18.6274 0 24 5.37258 24 12C24 18.6274 18.6274 24 12 24C5.37258 24 0 18.6274 0 12C0 5.37258 5.37258 0 12 0ZM16.9062 7.22363C16.4549 7.23162 15.762 7.47337 12.4297 8.85938C11.2624 9.34491 8.92944 10.3491 5.43164 11.873C4.8638 12.0989 4.56627 12.3201 4.53906 12.5361C4.48706 12.951 5.08449 13.08 5.83594 13.3242C6.44858 13.5234 7.27267 13.7563 7.70117 13.7656C8.08983 13.774 8.52402 13.614 9.00293 13.2852C12.2713 11.0789 13.9585 9.96349 14.0645 9.93945C14.1391 9.92251 14.2424 9.90171 14.3125 9.96387C14.3826 10.0262 14.3756 10.1439 14.3682 10.1758C14.3088 10.4289 11.2432 13.2181 11.0625 13.4053C10.3873 14.1065 9.61909 14.5357 10.8037 15.3164C11.8288 15.9919 12.4255 16.423 13.4814 17.1152C14.1564 17.5577 14.686 18.0827 15.3828 18.0186C15.7034 17.9889 16.035 17.6871 16.2031 16.7881C16.6007 14.6628 17.3819 10.0586 17.5625 8.16113C17.5783 7.99489 17.558 7.78187 17.542 7.68848C17.526 7.59509 17.4924 7.46175 17.3711 7.36328C17.2273 7.24684 17.0054 7.22189 16.9062 7.22363Z" fill="currentColor"/></g><defs><clipPath id="clip0_6180_87516"><rect width="24" height="24" fill="white"/></clipPath></defs>
	</symbol>
	<symbol viewBox="0 0 24 24" fill="none" id="pc-mob">
		<path d="M10 20H7M18 17H16M13.0002 9H6.2002C5.08009 9 4.51962 9 4.0918 9.21799C3.71547 9.40973 3.40973 9.71572 3.21799 10.092C3 10.5199 3 11.0799 3 12.2V13.8C3 14.9201 3 15.4801 3.21799 15.908C3.40973 16.2843 3.71547 16.5902 4.0918 16.782C4.51962 17 5.08009 17 6.2002 17H13.0002M17.002 7V7.002L17 7.00201V7H17.002ZM21 7.20001V16.8C21 17.9201 21.0002 18.4801 20.7822 18.908C20.5905 19.2843 20.2841 19.5902 19.9078 19.782C19.48 20 18.9203 20 17.8002 20H16.2002C15.0801 20 14.5196 20 14.0918 19.782C13.7155 19.5902 13.4097 19.2843 13.218 18.908C13 18.4801 13 17.9201 13 16.8V7.20001C13 6.07991 13 5.51986 13.218 5.09204C13.4097 4.71572 13.7155 4.40973 14.0918 4.21799C14.5196 4 15.0801 4 16.2002 4H17.8002C18.9203 4 19.48 4 19.9078 4.21799C20.2841 4.40973 20.5905 4.71572 20.7822 5.09204C21.0002 5.51986 21 6.07991 21 7.20001Z" stroke="currentColor" stroke-width="2" stroke-linecap="round" stroke-linejoin="round"/>
	</symbol>
	<symbol viewBox="0 0 24 24" fill="none" id="game">
		<path d="M23.4025 13L21.5104 7.2C20.7137 5.3 18.9212 4 16.8299 4H6.97095C4.87967 4 3.08714 5.3 2.29046 7.2L0.39834 13C0.0995851 13.6 0 14.3 0 15C0 17.8 2.19087 20 4.97925 20C6.97095 20 8.76349 18.8 9.56017 17H14.4398C15.2365 18.8 16.9295 20 19.0207 20C21.8091 20 24 17.8 24 15C23.8008 14.3 23.7012 13.6 23.4025 13ZM18.8216 18C17.6266 18 16.6307 17.3 16.1328 16.2L15.5353 15H8.26556L7.76763 16.2C7.17012 17.3 6.17427 18 4.97925 18C3.28631 18 1.9917 16.7 1.9917 15C1.9917 14.6 2.09129 14.2 2.19087 13.8L4.18257 7.8C4.6805 6.7 5.77593 6 6.97095 6H16.9295C18.1245 6 19.2199 6.7 19.7178 7.9L21.7095 13.9C21.9087 14.3 21.9087 14.7 21.9087 15.1C21.8091 16.7 20.5145 18 18.8216 18Z" fill="currentColor"/><path d="M14.9 13.6C15.6179 13.6 16.2 13.018 16.2 12.3C16.2 11.582 15.6179 11 14.9 11C14.182 11 13.6 11.582 13.6 12.3C13.6 13.018 14.182 13.6 14.9 13.6Z" fill="currentColor"/><path d="M17.3 10.6C18.018 10.6 18.6 10.018 18.6 9.3C18.6 8.58203 18.018 8 17.3 8C16.582 8 16 8.58203 16 9.3C16 10.018 16.582 10.6 17.3 10.6Z" fill="currentColor"/><path d="M8 8C8.55228 8 9 8.44771 9 9V10H10C10.5523 10 11 10.4477 11 11C11 11.5523 10.5523 12 10 12H9V13C9 13.5523 8.55228 14 8 14C7.44772 14 7 13.5523 7 13V12H6C5.44772 12 5 11.5523 5 11C5 10.4477 5.44772 10 6 10H7V9C7 8.44771 7.44772 8 8 8Z" fill="currentColor"/>
	</symbol>
	<symbol viewBox="0 0 24 24" fill="none" id="config">
		<path d="M20.3499 8.92293L19.9837 8.7192C19.9269 8.68756 19.8989 8.67169 19.8714 8.65524C19.5983 8.49165 19.3682 8.26564 19.2002 7.99523C19.1833 7.96802 19.1674 7.93949 19.1348 7.8831C19.1023 7.82677 19.0858 7.79823 19.0706 7.76998C18.92 7.48866 18.8385 7.17515 18.8336 6.85606C18.8331 6.82398 18.8332 6.79121 18.8343 6.72604L18.8415 6.30078C18.8529 5.62025 18.8587 5.27894 18.763 4.97262C18.6781 4.70053 18.536 4.44993 18.3462 4.23725C18.1317 3.99685 17.8347 3.82534 17.2402 3.48276L16.7464 3.1982C16.1536 2.85658 15.8571 2.68571 15.5423 2.62057C15.2639 2.56294 14.9765 2.56561 14.6991 2.62789C14.3859 2.69819 14.0931 2.87351 13.5079 3.22396L13.5045 3.22555L13.1507 3.43741C13.0948 3.47091 13.0665 3.48779 13.0384 3.50338C12.7601 3.6581 12.4495 3.74365 12.1312 3.75387C12.0992 3.7549 12.0665 3.7549 12.0013 3.7549C11.9365 3.7549 11.9024 3.7549 11.8704 3.75387C11.5515 3.74361 11.2402 3.65759 10.9615 3.50224C10.9334 3.48658 10.9056 3.46956 10.8496 3.4359L10.4935 3.22213C9.90422 2.86836 9.60915 2.69121 9.29427 2.62057C9.0157 2.55807 8.72737 2.55634 8.44791 2.61471C8.13236 2.68062 7.83577 2.85276 7.24258 3.19703L7.23994 3.1982L6.75228 3.48124L6.74688 3.48454C6.15904 3.82572 5.86441 3.99672 5.6517 4.23614C5.46294 4.4486 5.32185 4.69881 5.2374 4.97018C5.14194 5.27691 5.14703 5.61896 5.15853 6.3027L5.16568 6.72736C5.16676 6.79166 5.16864 6.82362 5.16817 6.85525C5.16343 7.17499 5.08086 7.48914 4.92974 7.77096C4.9148 7.79883 4.8987 7.8267 4.86654 7.88237C4.83436 7.93809 4.81877 7.96579 4.80209 7.99268C4.63336 8.26452 4.40214 8.49186 4.12733 8.65572C4.10015 8.67193 4.0715 8.68752 4.01521 8.71871L3.65365 8.91908C3.05208 9.25245 2.75137 9.41928 2.53256 9.65669C2.33898 9.86672 2.19275 10.1158 2.10349 10.3872C2.00259 10.6939 2.00267 11.0378 2.00424 11.7255L2.00551 12.2877C2.00706 12.9708 2.00919 13.3122 2.11032 13.6168C2.19979 13.8863 2.34495 14.134 2.53744 14.3427C2.75502 14.5787 3.05274 14.7445 3.64974 15.0766L4.00808 15.276C4.06907 15.3099 4.09976 15.3266 4.12917 15.3444C4.40148 15.5083 4.63089 15.735 4.79818 16.0053C4.81625 16.0345 4.8336 16.0648 4.8683 16.1255C4.90256 16.1853 4.92009 16.2152 4.93594 16.2452C5.08261 16.5229 5.16114 16.8315 5.16649 17.1455C5.16707 17.1794 5.16658 17.2137 5.16541 17.2827L5.15853 17.6902C5.14695 18.3763 5.1419 18.7197 5.23792 19.0273C5.32287 19.2994 5.46484 19.55 5.65463 19.7627C5.86915 20.0031 6.16655 20.1745 6.76107 20.5171L7.25478 20.8015C7.84763 21.1432 8.14395 21.3138 8.45869 21.379C8.73714 21.4366 9.02464 21.4344 9.30209 21.3721C9.61567 21.3017 9.90948 21.1258 10.4964 20.7743L10.8502 20.5625C10.9062 20.5289 10.9346 20.5121 10.9626 20.4965C11.2409 20.3418 11.5512 20.2558 11.8695 20.2456C11.9015 20.2446 11.9342 20.2446 11.9994 20.2446C12.0648 20.2446 12.0974 20.2446 12.1295 20.2456C12.4484 20.2559 12.7607 20.3422 13.0394 20.4975C13.0639 20.5112 13.0885 20.526 13.1316 20.5519L13.5078 20.7777C14.0971 21.1315 14.3916 21.3081 14.7065 21.3788C14.985 21.4413 15.2736 21.4438 15.5531 21.3855C15.8685 21.3196 16.1657 21.1471 16.7586 20.803L17.2536 20.5157C17.8418 20.1743 18.1367 20.0031 18.3495 19.7636C18.5383 19.5512 18.6796 19.3011 18.764 19.0297C18.8588 18.7252 18.8531 18.3858 18.8417 17.7119L18.8343 17.2724C18.8332 17.2081 18.8331 17.1761 18.8336 17.1445C18.8383 16.8247 18.9195 16.5104 19.0706 16.2286C19.0856 16.2007 19.1018 16.1726 19.1338 16.1171C19.166 16.0615 19.1827 16.0337 19.1994 16.0068C19.3681 15.7349 19.5995 15.5074 19.8744 15.3435C19.9012 15.3275 19.9289 15.3122 19.9838 15.2818L19.9857 15.2809L20.3472 15.0805C20.9488 14.7472 21.2501 14.5801 21.4689 14.3427C21.6625 14.1327 21.8085 13.8839 21.8978 13.6126C21.9981 13.3077 21.9973 12.9658 21.9958 12.2861L21.9945 11.7119C21.9929 11.0287 21.9921 10.6874 21.891 10.3828C21.8015 10.1133 21.6555 9.86561 21.463 9.65685C21.2457 9.42111 20.9475 9.25526 20.3517 8.92378L20.3499 8.92293Z" stroke="currentColor" stroke-width="2" stroke-linecap="round" stroke-linejoin="round"/><path d="M8.00034 12C8.00034 14.2091 9.7912 16 12.0003 16C14.2095 16 16.0003 14.2091 16.0003 12C16.0003 9.79086 14.2095 8 12.0003 8C9.7912 8 8.00034 9.79086 8.00034 12Z" stroke="currentColor" stroke-width="2" stroke-linecap="round" stroke-linejoin="round"/>
	</symbol>
	<symbol viewBox="0 0 12 12" fill="none" id="plus">
		<path d="M0 6H12M6 12V0" stroke="currentColor" stroke-width="2" stroke-linejoin="round"/>
	</symbol>
	<symbol viewBox="0 0 24 24" fill="none" id="plus-small">
		<path d="M6 12H18M12 18L12 6" stroke="currentColor" stroke-width="2" stroke-linecap="round" stroke-linejoin="round"/>
	</symbol>
	<symbol viewBox="0 0 24 24" fill="none" id="garant">
		<path d="M15 10.0001L11 14.0001L9.00003 12.0001M13.2461 3.45879L14.4671 4.49929C14.7747 4.76143 15.1569 4.91988 15.5598 4.95203L17.1587 5.07969C18.0988 5.15471 18.8459 5.90121 18.9209 6.84134L19.0476 8.44046C19.0797 8.84333 19.2384 9.22581 19.5006 9.53341L20.5415 10.7543C21.1532 11.4722 21.1528 12.5279 20.541 13.2457L19.501 14.4667C19.2389 14.7743 19.08 15.1568 19.0479 15.5597L18.9199 17.1587C18.8449 18.0989 18.0993 18.8454 17.1592 18.9204L15.5596 19.0481C15.1567 19.0802 14.7744 19.2386 14.4668 19.5007L13.2461 20.5413C12.5283 21.153 11.4718 21.153 10.7539 20.5413L9.53323 19.5008C9.22563 19.2386 8.84332 19.0802 8.44046 19.048L6.84085 18.9205C5.90072 18.8454 5.15513 18.0989 5.0801 17.1587L4.95217 15.5596C4.92003 15.1568 4.76119 14.7743 4.49905 14.4667L3.45901 13.2458C2.84729 12.528 2.8471 11.4721 3.45882 10.7543L4.49951 9.53338C4.76165 9.22577 4.91961 8.84335 4.95176 8.44048L5.07978 6.84136C5.15481 5.90123 5.90167 5.15467 6.8418 5.07964L8.43994 4.95208C8.84281 4.91993 9.22578 4.76146 9.53339 4.49932L10.7542 3.45879C11.472 2.84707 12.5283 2.84707 13.2461 3.45879Z" stroke="currentColor" stroke-width="2" stroke-linecap="round" stroke-linejoin="round"/>
	</symbol>
	<symbol viewBox="0 0 24 24" fill="none" id="phone">
		<path d="M9.50295 4.25722C9.19922 3.4979 8.46381 3 7.646 3H4.89474C3.8483 3 3 3.84834 3 4.89478C3 13.7895 10.2108 21 19.1055 21C20.1519 21 21 20.1518 21 19.1053L20.9999 16.354C20.9999 15.5362 20.5019 14.8009 19.7426 14.4971L17.1071 13.4429C16.4251 13.1701 15.6485 13.293 15.0842 13.7633L14.4031 14.3307C13.6084 14.9929 12.44 14.94 11.7085 14.2085L9.79136 12.2915C9.05993 11.5601 9.00722 10.3915 9.66943 9.59688L10.2368 8.91597C10.7071 8.35163 10.83 7.57493 10.5572 6.89286L9.50295 4.25722Z" stroke="currentColor" stroke-width="2" stroke-linecap="round" stroke-linejoin="round"/>
	</symbol>
	<symbol viewBox="0 0 24 24" fill="none" id="zoom">
		<path d="M10 19H5V14M14 5H19V10" stroke="currentColor" stroke-width="2" stroke-linecap="round" stroke-linejoin="round"/>
	</symbol>
</svg>