<svg width="120" height="120" viewBox="0 0 120 120" fill="none" xmlns="http://www.w3.org/2000/svg">
<path d="M50.03 11.6525C44.5 13.085 39.32 15.3875 34.7075 18.49L27.225 11.005L13.085 25.1475L20.69 32.7525C17.7825 37.2125 15.6 42.1675 14.2325 47.46H2.58252V72.5375H14.2325C15.6325 77.95 17.8775 83.02 20.8825 87.56L13.0875 95.355L27.2275 109.495L35.025 101.7C39.5725 104.713 44.6575 106.96 50.0825 108.36V120H60.2375V99.8825C39.2425 98.6625 22.58 81.3 22.58 60C22.58 38.6975 39.2425 21.3375 60.235 20.1175V0H50.0275L50.03 11.6525Z" fill="#241F20"/>
<path d="M40.08 60.0025C40.08 71.6375 48.91 81.2075 60.235 82.38V72.265C54.455 71.1675 50.08 66.1025 50.08 60.0025C50.08 53.9025 54.455 48.8375 60.235 47.74V37.625C48.91 38.7975 40.08 48.3675 40.08 60.0025Z" fill="#241F20"/>
<path d="M98.1201 64.965V35.3325C98.1201 17.35 84.8326 2.5125 67.5476 0V10.14C78.4076 12.3575 86.7551 21.42 87.9301 32.62V35.3325V36.6025V38.12V60.305V64.9675V67.4775L101.595 99.885H75.6476H67.5476H67.3926V120H75.6501V119.985C75.7001 119.985 75.7501 120 75.8026 120C79.0276 120 81.6426 117.385 81.6426 114.16V108.385H105.18H106.33H117.42L98.1201 64.965Z" fill="#241F20"/>
</svg>
