<svg width="120" height="120" viewBox="0 0 120 120" fill="none" xmlns="http://www.w3.org/2000/svg">
<path d="M58.191 99.4256L39.4502 88.5648C38.5219 88.007 37.3571 88.7018 37.3571 89.7807V101.958C37.3571 102.47 37.6391 102.945 38.0576 103.174L58.2001 114.931C58.619 115.168 59.1833 115.168 59.6018 114.931L105.102 88.5648C106.03 88.007 106.03 86.6448 105.102 86.1332L94.5165 79.9986C94.0976 79.7611 93.5335 79.7611 93.1148 79.9986L59.5927 99.4348C59.1649 99.6635 58.6553 99.6635 58.191 99.4256Z" fill="#00AEFF"/>
<path d="M23.968 79.5231V39.9106C23.968 39.3985 24.2502 38.923 24.6687 38.6942L58.1907 19.2582C58.6096 19.0206 59.1737 19.0206 59.5924 19.2582L93.1147 38.6947C93.5332 38.9323 94.0975 38.9323 94.5164 38.6947L105.102 32.56C106.03 32.0023 106.03 30.6403 105.102 30.1284L59.5924 3.7078C59.1737 3.46988 58.6096 3.46988 58.1907 3.7078L11.2889 30.9147C10.8703 31.1521 10.5882 31.6185 10.5882 32.1304V86.5442C10.5882 87.0563 10.8703 87.5319 11.2889 87.7602L21.8745 93.8945C22.8028 94.452 23.9677 93.7576 23.9677 92.6789L23.968 79.5231Z" fill="#00AEFF"/>
<path d="M78.6698 47.9553L85.7509 43.7592C86.6249 43.238 86.6249 41.9949 85.7509 41.4646L60.7939 26.9927C59.92 26.4714 58.8187 27.1205 58.8187 28.1354V90.594C58.8187 91.6088 59.92 92.2763 60.7939 91.7371L85.7509 77.2559C86.6249 76.7714 86.6249 75.4914 85.7509 74.9613L78.6698 70.7649C78.2784 70.4998 77.7413 70.4998 77.3502 70.7649L70.3143 74.8243C69.4406 75.345 68.3391 74.696 68.3391 73.6812V45.0391C68.3391 44.0243 69.4406 43.357 70.3143 43.8964L77.3502 47.9553C77.7507 48.1747 78.2784 48.1747 78.6698 47.9553Z" fill="#00AEFF"/>
<path d="M47.514 72.4014V46.2733C47.514 45.1946 46.3492 44.4905 45.4209 45.0576L34.8352 51.1918C34.4166 51.4297 34.1345 51.8958 34.1345 52.4074V66.322C34.1345 66.8341 34.4166 67.3092 34.8352 67.5377L45.4209 73.6723C46.3492 74.1839 47.514 73.4801 47.514 72.4014Z" fill="#00AEFF"/>
<path d="M107.468 72.4014V46.2733C107.468 45.1946 106.303 44.4905 105.374 45.0576L94.7886 51.1918C94.3702 51.4297 94.0881 51.8958 94.0881 52.4074V66.322C94.0881 66.8341 94.3702 67.3092 94.7886 67.5379L105.374 73.6723C106.303 74.1839 107.468 73.4803 107.468 72.4014Z" fill="#00AEFF"/>
</svg>
